HIERARCHY
ROOT Hips
{
	OFFSET 0.000000 100.481300 0.000000
	CHANNELS 6 Xposition Yposition Zposition Xrotation Yrotation Zrotation
	JOINT Spine
	{
		OFFSET -0.279200 12.230698 -2.892100
		CHANNELS 3 Xrotation Yrotation Zrotation
		JOINT Spine1
		{
			OFFSET -0.325700 14.269203 -3.374200
			CHANNELS 3 Xrotation Yrotation Zrotation
			JOINT Spine2
			{
				OFFSET -0.372300 16.307602 -0.352600
				CHANNELS 3 Xrotation Yrotation Zrotation
				JOINT Neck
				{
					OFFSET -0.418800 17.814194 8.416900
					CHANNELS 3 Xrotation Yrotation Zrotation
					JOINT Head
					{
						OFFSET 0.000000 7.031097 3.806800
						CHANNELS 3 Xrotation Yrotation Zrotation
						JOINT HeadTop_End
						{
							OFFSET 0.000000 24.646606 12.978600
							CHANNELS 3 Xrotation Yrotation Zrotation
							End Site
							{
								OFFSET 0.000000 27.854965 0.000000
							}
						}
					}
				}
				JOINT LeftShoulder
				{
					OFFSET 16.952999 14.495407 -7.737500
					CHANNELS 3 Xrotation Yrotation Zrotation
					JOINT LeftArm
					{
						OFFSET 9.308998 -2.777710 0.208600
						CHANNELS 3 Xrotation Yrotation Zrotation
						JOINT LeftForeArm
						{
							OFFSET 29.972298 0.000000 0.000000
							CHANNELS 3 Xrotation Yrotation Zrotation
							JOINT LeftHand
							{
								OFFSET 26.026505 0.000000 0.000000
								CHANNELS 3 Xrotation Yrotation Zrotation
								JOINT LeftHandThumb1
								{
									OFFSET 12.240501 -7.147949 9.207150
									CHANNELS 3 Xrotation Yrotation Zrotation
									JOINT LeftHandThumb2
									{
										OFFSET 4.138618 -2.389435 2.389433
										CHANNELS 3 Xrotation Yrotation Zrotation
										JOINT LeftHandThumb3
										{
											OFFSET 2.726913 -1.574387 1.574386
											CHANNELS 3 Xrotation Yrotation Zrotation
											JOINT LeftHandThumb4
											{
												OFFSET 3.941010 -2.275345 2.275342
												CHANNELS 3 Xrotation Yrotation Zrotation
												End Site
												{
													OFFSET -0.005798 5.087799 0.009903
												}
											}
										}
									}
								}
								JOINT LeftHandIndex1
								{
									OFFSET 24.424698 -1.985611 5.953459
									CHANNELS 3 Xrotation Yrotation Zrotation
									JOINT LeftHandIndex2
									{
										OFFSET 6.426697 0.000000 0.000000
										CHANNELS 3 Xrotation Yrotation Zrotation
										JOINT LeftHandIndex3
										{
											OFFSET 5.337898 0.000000 0.000000
											CHANNELS 3 Xrotation Yrotation Zrotation
											JOINT LeftHandIndex4
											{
												OFFSET 4.409401 0.000000 0.000000
												CHANNELS 3 Xrotation Yrotation Zrotation
												End Site
												{
													OFFSET 0.000000 4.409363 0.014373
												}
											}
										}
									}
								}
								JOINT LeftHandMiddle1
								{
									OFFSET 23.810104 0.000000 0.000000
									CHANNELS 3 Xrotation Yrotation Zrotation
									JOINT LeftHandMiddle2
									{
										OFFSET 7.176498 0.000000 0.000000
										CHANNELS 3 Xrotation Yrotation Zrotation
										JOINT LeftHandMiddle3
										{
											OFFSET 6.774902 0.000000 0.000000
											CHANNELS 3 Xrotation Yrotation Zrotation
											JOINT LeftHandMiddle4
											{
												OFFSET 5.403328 0.000000 0.000000
												CHANNELS 3 Xrotation Yrotation Zrotation
												End Site
												{
													OFFSET -0.027702 5.403244 0.017414
												}
											}
										}
									}
								}
								JOINT LeftHandRing1
								{
									OFFSET 22.908401 -0.839279 -6.020567
									CHANNELS 3 Xrotation Yrotation Zrotation
									JOINT LeftHandRing2
									{
										OFFSET 6.337502 0.000000 0.000000
										CHANNELS 3 Xrotation Yrotation Zrotation
										JOINT LeftHandRing3
										{
											OFFSET 5.779297 0.000000 0.000000
											CHANNELS 3 Xrotation Yrotation Zrotation
											JOINT LeftHandRing4
											{
												OFFSET 4.965698 0.000000 0.000000
												CHANNELS 3 Xrotation Yrotation Zrotation
												End Site
												{
													OFFSET 0.000000 4.965668 0.016186
												}
											}
										}
									}
								}
								JOINT LeftHandPinky1
								{
									OFFSET 20.037003 -1.530319 -10.950146
									CHANNELS 3 Xrotation Yrotation Zrotation
									JOINT LeftHandPinky2
									{
										OFFSET 5.254700 0.000000 0.000000
										CHANNELS 3 Xrotation Yrotation Zrotation
										JOINT LeftHandPinky3
										{
											OFFSET 4.810204 0.000000 0.000000
											CHANNELS 3 Xrotation Yrotation Zrotation
											JOINT LeftHandPinky4
											{
												OFFSET 3.647202 0.000000 0.000000
												CHANNELS 3 Xrotation Yrotation Zrotation
												End Site
												{
													OFFSET 0.000000 3.647186 0.011889
												}
											}
										}
									}
								}
							}
						}
					}
				}
				JOINT RightShoulder
				{
					OFFSET -15.141001 14.495407 -7.737500
					CHANNELS 3 Xrotation Yrotation Zrotation
					JOINT RightArm
					{
						OFFSET -9.308998 -2.777710 0.208500
						CHANNELS 3 Xrotation Yrotation Zrotation
						JOINT RightForeArm
						{
							OFFSET -29.972300 0.000000 0.000000
							CHANNELS 3 Xrotation Yrotation Zrotation
							JOINT RightHand
							{
								OFFSET -26.026505 0.000000 0.000000
								CHANNELS 3 Xrotation Yrotation Zrotation
								JOINT RightHandThumb1
								{
									OFFSET -12.240601 -7.148026 9.207092
									CHANNELS 3 Xrotation Yrotation Zrotation
									JOINT RightHandThumb2
									{
										OFFSET -4.138618 -2.389435 2.389433
										CHANNELS 3 Xrotation Yrotation Zrotation
										JOINT RightHandThumb3
										{
											OFFSET -2.726974 -1.574417 1.574421
											CHANNELS 3 Xrotation Yrotation Zrotation
											JOINT RightHandThumb4
											{
												OFFSET -3.941010 -2.275345 2.275343
												CHANNELS 3 Xrotation Yrotation Zrotation
												End Site
												{
													OFFSET 0.005814 5.087799 0.009927
												}
											}
										}
									}
								}
								JOINT RightHandIndex1
								{
									OFFSET -24.424698 -1.985657 5.953444
									CHANNELS 3 Xrotation Yrotation Zrotation
									JOINT RightHandIndex2
									{
										OFFSET -6.426697 0.000000 0.000000
										CHANNELS 3 Xrotation Yrotation Zrotation
										JOINT RightHandIndex3
										{
											OFFSET -5.337898 0.000000 0.000000
											CHANNELS 3 Xrotation Yrotation Zrotation
											JOINT RightHandIndex4
											{
												OFFSET -4.409401 0.000000 0.000000
												CHANNELS 3 Xrotation Yrotation Zrotation
												End Site
												{
													OFFSET 0.000000 4.409363 0.014408
												}
											}
										}
									}
								}
								JOINT RightHandMiddle1
								{
									OFFSET -23.810097 0.000000 0.000000
									CHANNELS 3 Xrotation Yrotation Zrotation
									JOINT RightHandMiddle2
									{
										OFFSET -7.176498 0.000000 0.000000
										CHANNELS 3 Xrotation Yrotation Zrotation
										JOINT RightHandMiddle3
										{
											OFFSET -6.774902 0.000000 0.000000
											CHANNELS 3 Xrotation Yrotation Zrotation
											JOINT RightHandMiddle4
											{
												OFFSET -5.403328 0.000000 0.000000
												CHANNELS 3 Xrotation Yrotation Zrotation
												End Site
												{
													OFFSET 0.027702 5.403244 0.017457
												}
											}
										}
									}
								}
								JOINT RightHandRing1
								{
									OFFSET -22.908302 -0.839325 -6.020576
									CHANNELS 3 Xrotation Yrotation Zrotation
									JOINT RightHandRing2
									{
										OFFSET -6.337502 0.000000 0.000000
										CHANNELS 3 Xrotation Yrotation Zrotation
										JOINT RightHandRing3
										{
											OFFSET -5.779297 0.000000 0.000000
											CHANNELS 3 Xrotation Yrotation Zrotation
											JOINT RightHandRing4
											{
												OFFSET -4.965698 0.000000 0.000000
												CHANNELS 3 Xrotation Yrotation Zrotation
												End Site
												{
													OFFSET 0.000000 4.965668 0.016226
												}
											}
										}
									}
								}
								JOINT RightHandPinky1
								{
									OFFSET -20.037003 -1.530334 -10.950259
									CHANNELS 3 Xrotation Yrotation Zrotation
									JOINT RightHandPinky2
									{
										OFFSET -5.254700 0.000000 0.000000
										CHANNELS 3 Xrotation Yrotation Zrotation
										JOINT RightHandPinky3
										{
											OFFSET -4.810204 0.000000 0.000000
											CHANNELS 3 Xrotation Yrotation Zrotation
											JOINT RightHandPinky4
											{
												OFFSET -3.647202 0.000000 0.000000
												CHANNELS 3 Xrotation Yrotation Zrotation
												End Site
												{
													OFFSET 0.000000 3.647186 0.011917
												}
											}
										}
									}
								}
							}
						}
					}
				}
			}
		}
	}
	JOINT LeftUpLeg
	{
		OFFSET 15.427100 -6.655098 0.678600
		CHANNELS 3 Xrotation Yrotation Zrotation
		JOINT LeftLeg
		{
			OFFSET 4.081073 -39.591068 13.024000
			CHANNELS 3 Xrotation Yrotation Zrotation
			JOINT LeftFoot
			{
				OFFSET -4.081074 -37.707932 -15.979700
				CHANNELS 3 Xrotation Yrotation Zrotation
				JOINT LeftToeBase
				{
					OFFSET 5.346399 -15.068900 20.645000
					CHANNELS 3 Xrotation Yrotation Zrotation
					JOINT LeftToe_End
					{
						OFFSET 2.754700 0.931300 11.300900
						CHANNELS 3 Xrotation Yrotation Zrotation
						End Site
						{
							OFFSET 0.000000 11.669021 0.000000
						}
					}
				}
			}
		}
	}
	JOINT RightUpLeg
	{
		OFFSET -15.569500 -6.655098 0.678600
		CHANNELS 3 Xrotation Yrotation Zrotation
		JOINT RightLeg
		{
			OFFSET -4.081825 -39.591045 13.023800
			CHANNELS 3 Xrotation Yrotation Zrotation
			JOINT RightFoot
			{
				OFFSET 4.081824 -37.707954 -15.979600
				CHANNELS 3 Xrotation Yrotation Zrotation
				JOINT RightToeBase
				{
					OFFSET -5.346400 -15.068900 20.645000
					CHANNELS 3 Xrotation Yrotation Zrotation
					JOINT RightToe_End
					{
						OFFSET -2.754700 0.931300 11.300900
						CHANNELS 3 Xrotation Yrotation Zrotation
						End Site
						{
							OFFSET 0.000000 11.669021 0.000000
						}
					}
				}
			}
		}
	}
}
MOTION
Frames: 4
Frame Time: 0.033333
9.696898 42.846565 -4.496056 7.011689 -16.531723 17.359778 0.221206 7.880712 -4.646938 0.398629 2.763798 -7.663556 0.382852 2.762047 -7.665220 -6.679343 1.204764 0.698761 -12.318415 7.032443 -0.507303 0.000001 0.000001 -0.000000 0.560376 5.548730 -11.556368 -3.919535 9.077239 -48.103636 -0.000002 -24.431032 0.000004 6.467962 -15.617217 -19.909800 -1.540039 3.690187 6.142350 3.946761 7.971394 0.752863 -0.575604 1.586248 2.542374 0.000000 -0.000001 0.000003 -0.000002 -0.000000 0.000001 0.000002 -0.000000 0.000001 -0.000008 -0.000002 -0.000019 0.000000 0.000000 -0.000000 -0.000002 -0.001936 0.015980 0.000002 0.001935 -0.015979 -0.000006 -0.000003 -0.000022 0.000001 -0.000002 -0.000000 -0.000002 -0.000000 0.000001 -0.000001 -0.000000 -0.000030 -0.000002 -0.000009 -0.000013 -0.000001 -0.000002 0.000000 -0.018100 4.054256 0.511052 -0.018089 -4.054252 -0.511060 -0.000005 -0.000005 -0.000020 -0.000001 0.000001 0.000000 -0.871572 -12.212774 11.456131 12.012792 29.359828 56.119962 -0.000012 31.237269 0.000031 -60.838913 1.099910 1.430785 28.092686 -3.581767 -6.586147 6.338031 -28.386123 -1.440686 -0.402569 -9.711806 -3.114030 -0.000000 -0.000001 -0.000002 4.743961 -6.590949 71.461524 6.462998 -6.931351 85.985648 1.855627 -4.733120 42.796917 -0.000000 0.000000 -0.000000 4.743961 -6.590948 71.461524 6.463004 -6.931354 85.985654 1.855622 -4.733125 42.796917 0.000001 0.000002 -0.000001 4.743964 -6.590950 71.461524 6.463006 -6.931354 85.985654 1.855626 -4.733120 42.796917 -0.000000 0.000000 -0.000000 4.743961 -6.590949 71.461524 6.463009 -6.931360 85.985654 1.855619 -4.733117 42.796917 -0.000001 0.000000 0.000000 -91.734515 -6.149914 41.928212 65.108027 10.375004 1.857051 35.900560 -6.789891 -12.677688 -0.000016 -0.000002 -0.000008 0.000000 0.000001 -0.000000 14.828020 1.208777 -36.175260 92.663476 13.311668 8.687513 -12.496378 -5.642848 25.886581 48.779859 -10.517008 -28.846536 0.000001 -0.000002 -0.000000 
9.688770 42.846519 -4.501732 6.874294 -16.626470 17.350666 0.239128 7.868246 -4.634102 0.439635 2.764274 -7.679626 0.423733 2.762156 -7.681517 -6.671725 1.187189 0.715132 -12.328116 6.957829 -0.454557 -0.000001 -0.000000 -0.000000 0.560335 5.550050 -11.558026 -4.035778 9.093547 -48.041228 0.000004 -24.450117 0.000014 6.559137 -15.609407 -20.239307 -1.540039 3.690185 6.142352 3.946761 7.971393 0.752862 -0.575603 1.586254 2.542369 0.000001 -0.000001 0.000000 -0.000003 0.000001 0.000002 0.000003 0.000001 0.000001 -0.000007 -0.000005 -0.000019 0.000000 0.000001 -0.000000 -0.000004 -0.001935 0.015981 0.000000 0.001938 -0.015979 -0.000007 -0.000002 -0.000023 0.000002 0.000003 -0.000001 -0.000003 0.000001 0.000002 -0.000001 0.000003 -0.000031 -0.000001 -0.000008 -0.000014 0.000000 0.000000 -0.000000 -0.018102 4.054255 0.511052 -0.018089 -4.054255 -0.511058 -0.000006 -0.000002 -0.000019 -0.000001 0.000002 -0.000000 -0.879264 -12.253951 11.447197 12.065529 29.336585 56.147399 0.000008 31.309133 -0.000020 -60.846754 1.083103 1.405081 28.092696 -3.581769 -6.586145 6.338032 -28.386121 -1.440684 -0.402571 -9.711807 -3.114025 0.000000 -0.000003 -0.000002 4.743966 -6.590952 71.461524 6.463005 -6.931348 85.985648 1.855631 -4.733123 42.796920 -0.000001 0.000003 -0.000003 4.743966 -6.590952 71.461524 6.463007 -6.931351 85.985648 1.855622 -4.733124 42.796913 0.000001 0.000003 -0.000001 4.743972 -6.590953 71.461530 6.463009 -6.931356 85.985648 1.855631 -4.733120 42.796917 -0.000000 0.000001 -0.000000 4.743966 -6.590952 71.461524 6.463013 -6.931358 85.985648 1.855623 -4.733118 42.796917 0.000001 -0.000000 -0.000001 -91.572278 -6.104507 42.001705 65.119802 10.335023 1.861002 35.874291 -6.780421 -12.694211 -0.000015 -0.000004 -0.000008 -0.000000 -0.000001 -0.000000 14.990571 1.246061 -36.201741 92.671802 13.302067 8.678992 -12.513950 -5.647973 25.891780 48.758989 -10.546501 -28.871527 -0.000001 0.000001 0.000001 
9.729349 42.839561 -4.559533 6.741487 -16.744999 17.358762 0.290409 7.938475 -4.632585 0.536698 2.921279 -7.680268 0.520984 2.919874 -7.680586 -6.546999 1.033214 0.744755 -12.262226 6.245747 -0.551501 -0.000000 0.000001 -0.000000 0.560446 5.527888 -11.535605 -4.145817 9.078582 -48.038899 -0.000001 -24.401752 0.000002 6.494260 -15.483672 -20.676779 -1.540040 3.690187 6.142348 3.946762 7.971395 0.752866 -0.575605 1.586248 2.542370 -0.000000 0.000001 -0.000003 -0.000003 0.000003 0.000001 0.000003 0.000002 0.000000 -0.000007 -0.000003 -0.000020 0.000000 0.000001 -0.000000 -0.000003 -0.001934 0.015981 0.000001 0.001933 -0.015980 -0.000007 -0.000003 -0.000021 -0.000000 0.000002 0.000001 -0.000003 0.000003 0.000001 -0.000002 0.000004 -0.000031 -0.000002 -0.000006 -0.000014 -0.000002 0.000001 0.000000 -0.018100 4.054256 0.511052 -0.018087 -4.054256 -0.511060 -0.000007 -0.000003 -0.000020 -0.000000 0.000002 0.000000 -0.898695 -12.138762 11.235283 11.040991 28.855411 55.793548 0.000006 31.143258 0.000018 -60.781997 1.149579 1.177755 28.092696 -3.581766 -6.586149 6.338032 -28.386121 -1.440687 -0.402570 -9.711805 -3.114033 0.000001 0.000000 -0.000002 4.743965 -6.590946 71.461517 6.463003 -6.931345 85.985648 1.855627 -4.733123 42.796917 0.000002 -0.000001 0.000001 4.743969 -6.590945 71.461524 6.463004 -6.931349 85.985654 1.855623 -4.733125 42.796917 0.000000 -0.000002 0.000001 4.743972 -6.590949 71.461524 6.463006 -6.931353 85.985654 1.855628 -4.733119 42.796917 0.000001 0.000000 -0.000002 4.743969 -6.590946 71.461524 6.463011 -6.931357 85.985654 1.855625 -4.733116 42.796917 -0.000001 0.000001 -0.000000 -91.437921 -6.035613 42.068399 65.117610 10.341804 1.847172 35.881357 -6.762866 -12.640980 -0.000015 -0.000003 -0.000008 -0.000000 0.000000 -0.000000 15.035784 1.298536 -36.337375 92.772212 13.355094 8.625227 -12.509180 -5.626026 25.871794 48.772766 -10.527627 -28.854998 -0.000000 0.000001 0.000000 
9.854420 42.870308 -4.635828 6.254893 -14.810806 16.940331 0.401237 8.446504 -4.719085 0.714219 3.291360 -7.657443 0.699410 3.293377 -7.652754 -6.231334 0.672600 0.809933 -12.067820 4.578946 -0.825232 -0.000001 0.000000 -0.000000 0.560547 5.491473 -11.481054 -4.166237 9.048933 -48.136694 -0.000000 -24.297017 -0.000006 6.271699 -15.172692 -21.343253 -1.540039 3.690185 6.142347 3.946763 7.971394 0.752863 -0.575605 1.586254 2.542371 0.000001 0.000001 0.000001 -0.000002 0.000003 0.000001 0.000003 0.000003 -0.000000 -0.000006 -0.000003 -0.000020 -0.000000 0.000000 0.000000 -0.000003 -0.001935 0.015980 0.000001 0.001936 -0.015981 -0.000008 -0.000006 -0.000023 -0.000000 0.000001 -0.000000 -0.000002 0.000003 0.000000 -0.000001 0.000004 -0.000032 -0.000002 -0.000005 -0.000014 0.000001 -0.000001 0.000001 -0.018100 4.054259 0.511052 -0.018087 -4.054250 -0.511060 -0.000005 -0.000004 -0.000018 -0.000001 0.000001 0.000001 -0.928572 -11.855483 10.802024 8.844090 27.918253 54.956228 0.000028 30.715583 -0.000046 -60.646547 1.301562 0.729580 28.092691 -3.581771 -6.586150 6.338033 -28.386123 -1.440685 -0.402570 -9.711804 -3.114028 0.000001 0.000000 0.000001 4.743962 -6.590948 71.461524 6.463002 -6.931347 85.985654 1.855628 -4.733121 42.796913 0.000000 -0.000003 0.000001 4.743964 -6.590947 71.461524 6.463005 -6.931352 85.985654 1.855621 -4.733126 42.796917 -0.000000 -0.000002 -0.000000 4.743968 -6.590953 71.461524 6.463007 -6.931352 85.985648 1.855626 -4.733120 42.796920 0.000001 0.000002 -0.000000 4.743963 -6.590948 71.461524 6.463015 -6.931360 85.985648 1.855625 -4.733117 42.796910 -0.000001 -0.000000 0.000001 -92.633409 -5.307344 40.002932 64.499464 10.332095 1.999193 36.443724 -6.577062 -11.406448 -0.000016 -0.000005 -0.000008 0.000000 -0.000002 -0.000000 15.932661 -0.207310 -36.144552 91.972199 13.035384 9.425983 -12.362219 -4.720020 26.134524 49.178001 -9.909744 -28.363733 0.000000 -0.000001 -0.000000 
